<?xml version="1.0" encoding="UTF-8"?>
<svg id="Camada_1" data-name="Camada 1" xmlns="http://www.w3.org/2000/svg" viewBox="0 0 1920 663.14">
  <defs>
    <style>
      .cls-1 {
        fill: #eaeaea;
      }

      .cls-2 {
        fill: #edbf33;
      }
    </style>
  </defs>
  <g>
    <path class="cls-1" d="M480.24,528.69h77.04v21.96h-54.03v27.89h51.94v21.96h-51.94v28.24h56.12v21.96h-79.13v-122.01Z"/>
    <path class="cls-1" d="M576.38,528.69h23.01v100.05h55.43v21.96h-78.43v-122.01Z"/>
    <path class="cls-1" d="M671.57,528.69h77.04v21.96h-54.03v27.89h51.94v21.96h-51.94v28.24h56.12v21.96h-79.13v-122.01Z"/>
    <path class="cls-1" d="M807.87,632.23c4.41,0,8.04-.67,10.89-2,2.85-1.33,5.05-3.14,6.62-5.4,1.57-2.27,2.64-4.88,3.22-7.84.58-2.96.87-6.01.87-9.15v-3.14h23.01v3.14c0,14.53-3.81,25.71-11.42,33.55-7.61,7.84-18.68,11.76-33.2,11.76s-24.98-4.24-33.12-12.72c-8.13-8.48-12.2-20.86-12.2-37.12v-27.19c0-7.78,1.05-14.79,3.14-21,2.09-6.21,5.11-11.44,9.06-15.69,3.95-4.24,8.71-7.49,14.29-9.76,5.58-2.27,11.85-3.4,18.82-3.4s13.59,1.05,19.17,3.14c5.58,2.09,10.25,5.11,14.03,9.06,3.77,3.95,6.62,8.71,8.54,14.29,1.92,5.58,2.88,11.85,2.88,18.82v3.14h-23.01v-3.14c0-2.9-.35-5.81-1.05-8.71-.7-2.9-1.86-5.52-3.49-7.84-1.63-2.32-3.83-4.21-6.62-5.66-2.79-1.45-6.27-2.18-10.46-2.18-3.83,0-7.15.73-9.93,2.18-2.79,1.45-5.11,3.43-6.97,5.93-1.86,2.5-3.22,5.4-4.1,8.71-.87,3.31-1.31,6.77-1.31,10.37v30.68c0,3.95.41,7.58,1.22,10.89.81,3.31,2.09,6.19,3.83,8.63,1.74,2.44,4.04,4.33,6.88,5.66,2.85,1.34,6.3,2,10.37,2Z"/>
    <path class="cls-1" d="M863.1,528.69h87.84v21.96h-32.42v100.05h-23.01v-100.05h-32.42v-21.96Z"/>
    <path class="cls-1" d="M1046.88,650.7h-23.01v-36.6c0-2.79-.73-5.05-2.18-6.8-1.45-1.74-3.86-2.61-7.23-2.61h-26.49v46.01h-23.01v-122.01h46.71c6.27,0,11.79.87,16.56,2.61,4.76,1.74,8.74,4.16,11.94,7.23,3.19,3.08,5.63,6.65,7.32,10.72,1.68,4.07,2.53,8.43,2.53,13.07v4.18c0,5-1.34,9.67-4.01,14.03-2.67,4.36-6.8,7.7-12.37,10.02v3.14c4.07.47,7.29,2.03,9.67,4.71,2.38,2.67,3.57,6.04,3.57,10.11v42.18ZM987.97,582.73h21.96c5.58,0,9.82-1.31,12.72-3.92,2.9-2.61,4.36-6.3,4.36-11.07v-2.09c0-4.07-1.45-7.58-4.36-10.54-2.91-2.96-7.15-4.44-12.72-4.44h-21.96v32.07Z"/>
    <path class="cls-1" d="M1063.14,528.69h81.57v21.96h-29.28v78.08h29.28v21.96h-81.57v-21.96h29.28v-78.08h-29.28v-21.96Z"/>
    <path class="cls-1" d="M1201.56,632.23c4.41,0,8.04-.67,10.89-2,2.85-1.33,5.05-3.14,6.62-5.4,1.57-2.27,2.64-4.88,3.22-7.84.58-2.96.87-6.01.87-9.15v-3.14h23.01v3.14c0,14.53-3.81,25.71-11.42,33.55-7.61,7.84-18.68,11.76-33.2,11.76s-24.98-4.24-33.12-12.72c-8.13-8.48-12.2-20.86-12.2-37.12v-27.19c0-7.78,1.05-14.79,3.14-21,2.09-6.21,5.11-11.44,9.06-15.69,3.95-4.24,8.71-7.49,14.29-9.76,5.58-2.27,11.85-3.4,18.82-3.4s13.59,1.05,19.17,3.14c5.58,2.09,10.25,5.11,14.03,9.06,3.77,3.95,6.62,8.71,8.54,14.29,1.92,5.58,2.88,11.85,2.88,18.82v3.14h-23.01v-3.14c0-2.9-.35-5.81-1.05-8.71-.7-2.9-1.86-5.52-3.49-7.84-1.63-2.32-3.83-4.21-6.62-5.66-2.79-1.45-6.27-2.18-10.46-2.18-3.83,0-7.15.73-9.93,2.18-2.79,1.45-5.11,3.43-6.97,5.93-1.86,2.5-3.22,5.4-4.1,8.71-.87,3.31-1.31,6.77-1.31,10.37v30.68c0,3.95.41,7.58,1.22,10.89.81,3.31,2.09,6.19,3.83,8.63,1.74,2.44,4.04,4.33,6.88,5.66,2.85,1.34,6.3,2,10.37,2Z"/>
  </g>
  <g>
    <path class="cls-1" d="M587.85,10v474.98h-107.61V10h107.61ZM816.77,10l-117.89,213.84,128.17,261.13h-117.2l-118.57-253.6L710.54,10h106.24Z"/>
    <path class="cls-1" d="M957.96,10v389.99h149.42l-10.97,84.99h-246.06V10h107.61Z"/>
    <path class="cls-1" d="M1377.1,10l-124.74,296.09v178.89h-107.61v-178.2L1020.01,10h112.4l67.17,212.47,68.54-212.47h108.98Z"/>
    <path class="cls-1" d="M1394.24,484.98V10h242.63l-10.97,76.76h-124.06v130.22h108.98v77.45h-108.98v190.54h-107.61Z"/>
    <path class="cls-1" d="M1910,10l-10.97,76.76h-132.28v119.26h116.52v75.39h-116.52v125.43h141.19v78.13h-248.8V10h250.85Z"/>
  </g>
  <g>
    <path class="cls-2" d="M395.85,202.18h0c0-.08,0-.16,0-.23,0-.7,0-1.4,0-2.11h0c-.3-25.11-5.37-49.48-15.09-72.47-9.68-22.89-23.54-43.44-41.18-61.08-17.64-17.64-38.2-31.5-61.08-41.18-23.7-10.03-48.87-15.11-74.81-15.11-48.05,0-91.49,16.11-125.62,46.6-15.47,13.82-28.75,30.31-39.47,49.01-10.27,17.93-17.93,37.42-22.76,57.94-9.47,40.16-7.34,82.1,5.99,118.09,14.8,39.95,42.28,70.87,79.47,89.43,32.24,16.09,62.09,19.24,100.34,19.24,11.28,0,23.3-.27,36.31-.57,16.02-.37,34.17-.78,54.55-.78v-31.34c-20.74,0-39.08.42-55.26.79-56.19,1.28-87.14,1.99-121.94-15.38-29.94-14.94-52.09-39.94-64.08-72.28-11.21-30.27-12.94-65.79-4.88-100.02,8.43-35.76,27.11-68,52.6-90.77,13.63-12.17,29.08-21.63,45.94-28.12,18.13-6.98,37.91-10.51,58.8-10.51,42.96,0,83.35,16.73,113.73,47.11,30.38,30.38,47.11,70.77,47.11,113.73h0c.1,34.31-8.02,58.94-24.82,75.24-17.74,17.21-46.62,25.91-85.96,25.91-2.79,0-5.64-.05-8.54-.13v-.09h-2.65c-.31-.01-.63-.02-.94-.03v.03h-40.15c-24.82,0-42.8-5.71-52.01-16.5-5.89-6.9-6.52-13.92-6.59-15.2l-.76-43.97,30.67,13.5,28.14-28.15,20.98,29.37,32.47-14.66v33.51h31.34v-82.04l-53.26,24.05-27.53-38.54-39.14,39.15-55.85-24.59,1.6,92.24c0,3.7.86,22.34,16.95,38.8,14.4,14.73,36.07,22.85,64.47,24.18v.2h49.05c3.97.15,7.87.22,11.7.22,21.79,0,41.21-2.38,57.88-7.11,20.13-5.71,36.94-15.01,49.96-27.65,12.23-11.87,21.31-26.86,26.98-44.55,4.93-15.37,7.39-33.26,7.35-53.18Z"/>
    <rect class="cls-2" x="140.98" y="407.89" width="114.18" height="31.34"/>
    <path class="cls-2" d="M162.04,453.64c0,17.31,8.38,31.34,18.71,31.34h34.55c10.33,0,18.71-14.03,18.71-31.34h-71.96Z"/>
  </g>
</svg>