<svg xmlns="http://www.w3.org/2000/svg" viewBox="0 0 1920 2358.87">
  <path style="fill: #edbf33;" d="M1910,956.34h0c0-.38,0-.77,0-1.15-.01-3.45,0-6.89-.04-10.37h-.02c-1.46-123.65-26.45-243.65-74.33-356.86-47.67-112.7-115.89-213.9-202.78-300.78-86.89-86.89-188.08-155.11-300.78-202.78-116.72-49.37-240.66-74.4-368.38-74.4-236.6,0-450.5,79.35-618.56,229.46-76.2,68.06-141.58,149.26-194.34,241.35-50.57,88.27-88.28,184.26-112.09,285.29-46.62,197.77-36.14,404.29,29.51,581.49,72.86,196.7,208.17,348.98,391.3,440.39,158.75,79.24,305.76,94.75,494.09,94.75,55.55,0,114.72-1.35,178.82-2.81,78.86-1.8,168.25-3.84,268.6-3.84v-154.31c-102.11,0-192.43,2.06-272.12,3.88-276.69,6.32-429.11,9.8-600.48-75.74-147.42-73.58-256.52-196.66-315.52-355.92-55.21-149.05-63.74-323.95-24.01-492.49,41.51-176.1,133.5-334.84,259.03-446.96,67.09-59.93,143.2-106.52,226.21-138.46,89.26-34.36,186.68-51.77,289.55-51.77,211.56,0,410.45,82.39,560.05,231.98s231.98,348.49,231.98,560.05h0c.5,168.95-39.49,290.22-122.2,370.48-87.35,84.76-229.55,127.59-423.3,127.58-13.74,0-27.77-.23-42.04-.66v-.46h-13.05c-1.55-.06-3.08-.11-4.64-.17v.17h-197.68c-122.2,0-210.76-28.09-256.12-81.25-28.98-33.97-32.12-68.54-32.46-74.86l-3.75-216.52,151.04,66.49,138.58-138.61,103.29,144.62,159.88-72.19v164.99h154.31v-403.97l-262.24,118.41-135.56-189.79-192.73,192.77-275.02-121.08,7.86,454.19c.01,18.24,4.21,110.02,83.45,191.07,70.93,72.55,177.61,112.51,317.49,119.06v.98h241.51c19.55.72,38.76,1.11,57.61,1.11,107.31,0,202.95-11.73,284.99-34.99,99.14-28.12,181.92-73.92,246.04-136.14,60.24-58.46,104.94-132.26,132.86-219.35,24.26-75.7,36.4-163.77,36.18-261.87Z"/>
  <rect style="fill: #edbf33;" x="654.96" y="1969.28" width="562.23" height="154.31"/>
  <path style="fill: #edbf33;" d="M758.66,2194.56c0,85.22,41.24,154.31,92.12,154.31h170.11c50.87,0,92.11-69.09,92.11-154.31h-354.34Z"/>
</svg>
